<svg width="41" height="40" viewBox="0 0 41 40" fill="none" xmlns="http://www.w3.org/2000/svg">
<path d="M26.3333 20C26.3333 23.1065 23.7451 25.6667 20.5 25.6667C17.2549 25.6667 14.6667 23.1065 14.6667 20C14.6667 16.8936 17.2549 14.3334 20.5 14.3334C23.7451 14.3334 26.3333 16.8936 26.3333 20Z" stroke="#FF6B00" stroke-width="2"/>
<path d="M20.5 13.3333V10M20.5 5V10M20.5 10L15.375 6.66667M20.5 10L25.625 6.66667" stroke="#FF6B00" stroke-width="2" stroke-linecap="round"/>
<path d="M27.3333 20L30.75 20M35.875 20L30.75 20M30.75 20L34.1667 15M30.75 20L34.1667 25" stroke="#FF6B00" stroke-width="2" stroke-linecap="round"/>
<path d="M20.5 26.6667V30M20.5 35V30M20.5 30L15.375 33.3333M20.5 30L25.625 33.3333" stroke="#FF6B00" stroke-width="2" stroke-linecap="round"/>
<path d="M13.6667 20L10.25 20M5.125 20L10.25 20M10.25 20L6.83333 15M10.25 20L6.83333 25" stroke="#FF6B00" stroke-width="2" stroke-linecap="round"/>
</svg>
