<svg width="38" height="32" viewBox="0 0 38 32" fill="none" xmlns="http://www.w3.org/2000/svg">
<path d="M1 13H37M35 25V14.3582C35 13.8511 35.0002 13.5977 34.9688 13.3484C34.9408 13.127 34.8941 12.9081 34.8297 12.6944C34.7571 12.4538 34.6539 12.2223 34.448 11.759L31.3555 4.80078C30.744 3.42506 30.4383 2.73705 29.9551 2.23267C29.5279 1.78683 29.0041 1.44601 28.4232 1.23674C27.766 1 27.0126 1 25.5071 1H12.4922C10.9867 1 10.2343 1 9.57715 1.23674C8.99625 1.44601 8.47207 1.78683 8.04492 2.23267C7.56168 2.73705 7.25571 3.42507 6.64428 4.80078L3.55176 11.759C3.34582 12.2223 3.24244 12.4538 3.16992 12.6944C3.10551 12.9081 3.05937 13.127 3.03144 13.3484C3 13.5977 3 13.8511 3 14.3582V25M35 25L3 25M35 25V27C35 29.2091 33.2091 31 31 31C28.7909 31 27 29.2091 27 27V25M3 25V27C3 29.2091 4.79086 31 7 31C9.20914 31 11 29.2091 11 27V25" stroke="#FF6B00" stroke-width="2" stroke-linecap="round" stroke-linejoin="round"/>
</svg>
