<svg width="38" height="30" viewBox="0 0 38 30" fill="none" xmlns="http://www.w3.org/2000/svg">
<path d="M11.6865 20.1801C12.6182 19.181 13.7447 18.3834 14.9966 17.8365C16.2484 17.2895 17.5986 17.0048 18.9647 17C20.3308 16.9953 21.6835 17.2705 22.9392 17.8087C24.1948 18.3468 25.3271 19.1365 26.2658 20.1291M7.29883 14.0881C8.78952 12.4895 10.5919 11.2134 12.5949 10.3383C14.5979 9.46321 16.7587 9.00778 18.9445 9.00015C21.1302 8.99252 23.2942 9.43279 25.3033 10.2939C27.3123 11.1549 29.124 12.4185 30.6258 14.0066M1.44727 8.63209C3.6833 6.23423 6.38694 4.31996 9.39138 3.00735C12.3958 1.69474 15.6376 1.01159 18.9162 1.00015C22.1948 0.988701 25.4409 1.64917 28.4544 2.94077C31.4679 4.23237 34.1846 6.12778 36.4373 8.50996M19 29C17.8954 29 17 28.1046 17 27C17 25.8955 17.8954 25 19 25C20.1046 25 21 25.8955 21 27C21 28.1046 20.1046 29 19 29Z" stroke="#FF6B00" stroke-width="2" stroke-linecap="round" stroke-linejoin="round"/>
</svg>
